<svg width="36" height="36" viewBox="0 0 36 36" fill="none" xmlns="http://www.w3.org/2000/svg">
<g id="Frame 1430106635">
<g id="Group 1000002643">
<path id="Vector" d="M32.7316 24.6404H32.7313V24.6904C32.7313 28.448 31.1481 31.26 28.5483 33.1341C25.9466 35.0097 22.3233 35.9484 18.2425 35.9484C14.1617 35.9484 10.406 35.0097 7.672 33.1335C4.93991 31.2585 3.22627 28.4465 3.22627 24.6904C3.22627 17.1741 9.82723 11.0745 17.979 11.0745C26.1126 11.0745 32.7024 17.1471 32.7316 24.6404Z" fill="#EFF4FE" stroke="black" stroke-width="0.1"/>
<path id="Vector_2" d="M30.5397 24.7365C30.5397 27.9762 29.1741 30.4024 26.9315 32.019C24.6885 33.636 21.5671 34.4437 18.0553 34.4437C14.5435 34.4437 11.3087 33.6359 8.95224 32.0187C6.59627 30.4019 5.11781 27.9757 5.11781 24.7365C5.11781 18.2571 10.8077 13.0026 17.8287 13.0026C24.8498 13.0026 30.5397 18.2571 30.5397 24.7365Z" fill="#5E8BE7" stroke="black" stroke-width="0.0251677"/>
<path id="Vector_3" d="M29.7483 25.2008C29.7483 28.239 28.4677 30.5144 26.3646 32.0306C24.261 33.5471 21.3336 34.3048 18.0398 34.3048C14.746 34.3048 11.7122 33.5472 9.5022 32.0305C7.29267 30.5142 5.90614 28.2388 5.90614 25.2008C5.90614 19.1239 11.2423 14.1961 17.8272 14.1961C24.4122 14.1961 29.7483 19.1239 29.7483 25.2008Z" fill="#272828" stroke="black" stroke-width="0.0251677"/>
<path id="Vector_4" d="M4.09343 28.8142C4.08614 28.8927 4.07832 28.9491 4.07013 28.9814L4.05104 28.9827C4.03298 28.9839 4.00638 28.9856 3.97229 28.9876C3.9041 28.9915 3.80591 28.9966 3.68596 29.0011C3.44603 29.0102 3.11912 29.0169 2.77107 29.0079C2.42298 28.9988 2.05405 28.9738 1.73 28.9195C1.40543 28.8651 1.12789 28.7816 0.960942 28.6565C0.920413 28.6262 0.879474 28.5762 0.838592 28.5082C0.797791 28.4402 0.75747 28.3549 0.717898 28.2545C0.638753 28.0536 0.562993 27.7932 0.492439 27.4926C0.351345 26.8915 0.231365 26.1309 0.146662 25.3666C0.0619612 24.6024 0.012578 23.8349 0.0125838 23.2201C0.0125868 22.9126 0.0249404 22.6437 0.0513325 22.4325C0.0645292 22.3269 0.0812066 22.236 0.101516 22.162C0.12188 22.0879 0.145658 22.0318 0.172577 21.995C0.22785 21.9195 0.325969 21.8331 0.456829 21.74C0.587469 21.6471 0.749894 21.5481 0.932967 21.4473C1.2991 21.2457 1.74711 21.0372 2.18703 20.8559C2.62697 20.6745 3.05847 20.5204 3.39154 20.4276C3.55815 20.3812 3.69967 20.3502 3.80513 20.3387C3.85791 20.3329 3.90104 20.3321 3.93352 20.3364C3.96659 20.3408 3.98569 20.3501 3.99429 20.3617C3.99853 20.3674 4.00381 20.3805 4.00941 20.4029C4.01486 20.4247 4.02023 20.4536 4.0255 20.4893C4.03603 20.5607 4.04599 20.6582 4.05537 20.7785C4.07412 21.0189 4.09045 21.3492 4.10429 21.7402C4.13196 22.5221 4.14963 23.5463 4.15671 24.5785C4.16379 25.6107 4.16027 26.6507 4.14558 27.4645C4.13823 27.8714 4.12808 28.2216 4.11508 28.486C4.10857 28.6182 4.10136 28.7287 4.09343 28.8142Z" fill="#5E8BE7" stroke="black" stroke-width="0.0251677"/>
<path id="Vector_5" d="M31.9484 28.9827L31.9293 28.9814C31.9212 28.9491 31.9133 28.8927 31.9061 28.8142C31.8981 28.7287 31.8909 28.6182 31.8844 28.486C31.8714 28.2216 31.8613 27.8714 31.8539 27.4645C31.8392 26.6507 31.8357 25.6107 31.8428 24.5785C31.8498 23.5463 31.8675 22.5221 31.8952 21.7402C31.909 21.3492 31.9254 21.0189 31.9441 20.7785C31.9535 20.6582 31.9635 20.5607 31.974 20.4893C31.9792 20.4536 31.9846 20.4247 31.9901 20.4029C31.9957 20.3805 32.0009 20.3674 32.0052 20.3617C32.0138 20.3501 32.0329 20.3408 32.066 20.3364C32.0984 20.3321 32.1416 20.3329 32.1944 20.3387C32.2998 20.3502 32.4413 20.3812 32.6079 20.4276C32.941 20.5204 33.3725 20.6745 33.8124 20.8559C34.2524 21.0372 34.7004 21.2457 35.0665 21.4473C35.2496 21.5481 35.412 21.6471 35.5426 21.74C35.6735 21.8331 35.7716 21.9195 35.8269 21.995C35.8538 22.0318 35.8776 22.0879 35.898 22.162C35.9183 22.236 35.9349 22.3269 35.9481 22.4325C35.9745 22.6437 35.9869 22.9126 35.9869 23.2201C35.9869 23.8349 35.9375 24.6024 35.8528 25.3666C35.7681 26.1309 35.6481 26.8915 35.507 27.4926C35.4365 27.7932 35.3607 28.0536 35.2816 28.2545C35.242 28.3549 35.2017 28.4402 35.1609 28.5082C35.12 28.5762 35.0791 28.6262 35.0385 28.6565C34.8716 28.7816 34.594 28.8651 34.2695 28.9195C33.9454 28.9738 33.5765 28.9988 33.2284 29.0079C32.8804 29.0169 32.5535 29.0102 32.3135 29.0011C32.1936 28.9966 32.0954 28.9915 32.0272 28.9876C31.9931 28.9856 31.9665 28.9839 31.9484 28.9827Z" fill="#5E8BE7" stroke="black" stroke-width="0.0251677"/>
<path id="Vector_6" d="M13.812 24.0749C13.812 25.1607 13.5494 25.8511 13.1273 26.2702C12.7052 26.6893 12.1214 26.8393 11.4739 26.8393C10.8265 26.8393 10.2427 26.6893 9.82058 26.2702C9.3985 25.8511 9.13587 25.1607 9.13587 24.0749C9.13587 22.9892 9.39851 22.0069 9.82252 21.2965C10.2467 20.5858 10.8309 20.1491 11.4739 20.1491C12.1169 20.1491 12.7012 20.5858 13.1253 21.2965C13.5494 22.0069 13.812 22.9892 13.812 24.0749Z" fill="white" stroke="black" stroke-width="0.0251677"/>
<path id="Vector_7" d="M26.5561 24.0749C26.5561 25.1607 26.2935 25.8511 25.8714 26.2702C25.4494 26.6893 24.8655 26.8393 24.2181 26.8393C23.5706 26.8393 22.9868 26.6893 22.5647 26.2702C22.1426 25.8511 21.88 25.1607 21.88 24.0749C21.88 22.9892 22.1426 22.0069 22.5667 21.2965C22.9908 20.5858 23.5751 20.1491 24.2181 20.1491C24.8611 20.1491 25.4453 20.5858 25.8695 21.2965C26.2935 22.0069 26.5561 22.9892 26.5561 24.0749Z" fill="white" stroke="black" stroke-width="0.0251677"/>
<path id="Vector_8" d="M15.7609 26.7554L15.7609 26.7552C15.7723 26.7512 15.7971 26.7456 15.8346 26.7388C15.8721 26.7319 15.9214 26.7241 15.981 26.7153C16.1002 26.6978 16.2601 26.6768 16.4474 26.6541C16.8222 26.6088 17.3066 26.5566 17.7955 26.5112C18.2844 26.4658 18.7775 26.4272 19.1695 26.409C19.3656 26.3999 19.5361 26.3959 19.6682 26.3988C19.7342 26.4002 19.7904 26.4033 19.8352 26.4082C19.8804 26.4132 19.9129 26.42 19.9323 26.4283C19.9495 26.4357 19.9658 26.4533 19.98 26.4829C19.9941 26.5123 20.0054 26.5521 20.0133 26.6013C20.0292 26.6997 20.0315 26.8335 20.0183 26.9914C19.992 27.3072 19.904 27.7178 19.742 28.1319C19.4178 28.9607 18.799 29.7992 17.7889 29.9254C17.2844 29.9884 16.8878 29.8286 16.5807 29.5518C16.2733 29.2747 16.0553 28.8797 15.9097 28.4725C15.7642 28.0653 15.6914 27.6468 15.6738 27.3236C15.665 27.1619 15.6701 27.0245 15.6865 26.9245C15.6947 26.8744 15.7057 26.8343 15.7189 26.8053C15.7323 26.7759 15.7469 26.7604 15.7609 26.7554Z" fill="white" stroke="black" stroke-width="0.0251677"/>
<path id="Vector_9" d="M17.851 12.1959L17.8471 12.1852L17.8269 12.1299C17.8093 12.0814 17.7835 12.0103 17.751 11.9195C17.686 11.7379 17.594 11.478 17.4861 11.1644C17.2702 10.5371 16.9907 9.69536 16.7362 8.83709C16.4816 7.97872 16.2521 7.10426 16.136 6.41152C16.078 6.06508 16.0484 5.76471 16.0581 5.53478C16.0629 5.4198 16.0775 5.32302 16.103 5.24711C16.1285 5.17115 16.1644 5.11722 16.211 5.08625C16.4087 4.95505 16.7213 4.8389 17.0802 4.73855C17.4388 4.63829 17.8423 4.55413 18.2212 4.48647C18.6001 4.41881 18.954 4.36768 19.2133 4.33347C19.3429 4.31636 19.4488 4.30348 19.5224 4.29488C19.5591 4.29058 19.5878 4.28735 19.6073 4.2852L19.6294 4.28278L19.6351 4.28217L19.6365 4.28202L19.6368 4.28198L19.6369 4.28197L19.6356 4.26945M17.851 12.1959L21.1569 0.0192274C21.169 0.0251605 21.1841 0.0372158 21.202 0.0561571C21.2197 0.0749408 21.2397 0.09981 21.2616 0.130528C21.3055 0.191957 21.357 0.275971 21.4147 0.379602C21.5301 0.586814 21.6701 0.871469 21.8245 1.20845C22.1334 1.88237 22.4998 2.76478 22.8422 3.65373C23.1847 4.54269 23.5031 5.43795 23.7164 6.13755C23.823 6.4874 23.9032 6.78803 23.947 7.01436C23.9689 7.12757 23.9816 7.22178 23.984 7.29409C23.9852 7.33024 23.9838 7.36057 23.9799 7.38487C23.9759 7.40935 23.9694 7.4267 23.9613 7.43777C23.9432 7.46239 23.9106 7.4884 23.8638 7.51535C23.8172 7.54216 23.7576 7.56934 23.6866 7.59671C23.5449 7.65143 23.359 7.70645 23.1444 7.76058C22.7152 7.86881 22.1721 7.97314 21.6385 8.06416C21.1049 8.15516 20.5812 8.23282 20.1908 8.28772C19.9956 8.31517 19.8337 8.33694 19.7207 8.35183L19.5897 8.36889L19.5552 8.37328L19.5464 8.37439L19.5442 8.37467L19.5436 8.37474L19.5435 8.37476L19.545 8.38725C19.545 8.38725 23.6577 7.87275 23.9715 7.44522C24.2852 7.01768 21.614 0.229154 21.1625 0.00792694L21.1569 0.0192293C21.1338 0.00791698 21.1079 0.0107944 21.0776 0.0299641C21.0469 0.0493667 21.0133 0.0846497 20.9773 0.134851C20.9055 0.235077 20.8269 0.390979 20.7448 0.585356C20.5808 0.973837 20.4042 1.51289 20.2416 2.05932C20.0791 2.60564 19.9306 3.15891 19.8228 3.57563C19.7689 3.78398 19.7252 3.95819 19.6949 4.08029C19.6798 4.14135 19.668 4.18938 19.66 4.22214L19.651 4.25956L19.6487 4.26915L19.6481 4.27158L19.6479 4.27219L19.6479 4.27234L19.6356 4.26945M17.851 12.1959H17.8512L17.8511 12.1961L17.8523 12.1994L17.8525 12.1999L17.851 12.1959ZM19.6356 4.26945L19.637 4.28197L19.6458 4.28104L19.6479 4.27239L19.6356 4.26945Z" fill="#5E8BE7" stroke="black" stroke-width="0.0251677"/>
</g>
</g>
</svg>
